<svg xmlns="http://www.w3.org/2000/svg" viewBox="30 26 340 306" style="--cream:#f8f3e9;--sage:#9cae9c;--sage_shadow:#819783;--blue:#8c9da6;--terracotta:#c9856c;--mustard:#cbb27b;--brown:#655147;--pink:#c89e96;--skin:#e9c2a7;--skin_shadow:#d6ab90;--hair:#655247;--hair_light:#7c6655" data-illustration-system="symptom-closeup-v1" aria-hidden="true" focusable="false"><ellipse cx="202" cy="193" rx="121" ry="129" fill="var(--cream)"/><ellipse cx="201" cy="296" rx="91" ry="4" fill="#ded6c7" opacity=".4"/><path d="M126 87Q148 109 142 154L137 194Q127 228 142 259L255 264Q273 235 263 202L255 157Q248 119 271 90Z" fill="var(--skin)" stroke="none" stroke-width="1.4" stroke-linecap="round" stroke-linejoin="round"/><path d="M251 107Q246 150 258 190Q275 235 255 264L238 261Q254 227 244 198L235 153Z" fill="var(--skin_shadow)" stroke="none" stroke-width="1.4" stroke-linecap="round" stroke-linejoin="round"/><path d="M117 79H278L267 129Q224 146 138 128Z" fill="var(--blue)" stroke="none" stroke-width="1.4" stroke-linecap="round" stroke-linejoin="round"/><path d="M242 80H278L267 129L246 134Z" fill="#7f97a5" stroke="none" stroke-width="1.4" stroke-linecap="round" stroke-linejoin="round"/><path d="M138 252Q198 269 258 253L271 292H125Z" fill="var(--sage)" stroke="none" stroke-width="1.4" stroke-linecap="round" stroke-linejoin="round"/><path d="M193 148Q187 181 194 211M159 235Q193 219 230 236" fill="none" stroke="#b69079" stroke-width="1.3" stroke-linecap="round" stroke-linejoin="round"/><path d="M104 161L123 153L137 205L163 222L184 218L199 214Q205 215 201 219L189 224L203 221Q210 222 206 226L191 232L205 229Q211 231 204 235L189 241L174 243L154 239L124 221Q117 217 114 205Z" fill="var(--skin)" stroke="none" stroke-width="1.4" stroke-linecap="round" stroke-linejoin="round"/><path d="M104 161L111 176L122 208Q124 216 135 223L163 238L179 240L174 243L154 239L124 221Q117 217 114 205Z" fill="var(--skin_shadow)" stroke="none" stroke-width="1.4" stroke-linecap="round" stroke-linejoin="round"/><path d="M177 230L190 227M179 237L190 234" fill="none" stroke="#b69079" stroke-width="1.3" stroke-linecap="round" stroke-linejoin="round"/><ellipse cx="207" cy="224" rx="13" ry="10" fill="var(--terracotta)" opacity=".2"/><path d="M214 211l4 -6M222 224l7 -1" fill="none" stroke="var(--terracotta)" stroke-width="2.5" stroke-linecap="round" stroke-linejoin="round"/></svg>